<svg width="80" height="80" viewBox="0 0 80 80" fill="none" xmlns="http://www.w3.org/2000/svg">
<circle cx="40" cy="40" r="40" fill="#ABB2BF"/>
<path d="M18.6558 20.322L18.7876 20.4177L39.7261 35.6521L60.6645 20.4177L60.7964 20.322H62.021C63.0532 20.3221 63.9767 20.7183 64.6431 21.3884L64.7651 21.5164C65.3607 22.1723 65.7055 23.0483 65.7056 24.0183V55.9822C65.7054 58.0676 64.1033 59.6782 62.021 59.6785H58.3354V31.1472L40.0181 44.3484L39.7261 44.5583L39.4341 44.3484L21.1167 31.1472V59.6785H17.4311C15.3465 59.6783 13.7467 58.0674 13.7466 55.9822V24.0183C13.7466 22.9844 14.1398 22.0581 14.8052 21.3914C15.4734 20.7133 16.4017 20.3221 17.4311 20.322H18.6558Z" fill="#1E1E1E" stroke="#1E1E1E"/>
</svg>
