<svg width="80" height="80" viewBox="0 0 80 80" fill="none" xmlns="http://www.w3.org/2000/svg">
<path fill-rule="evenodd" clip-rule="evenodd" d="M39.9873 0C29.1275 0 27.7657 0.0460317 23.5006 0.240635C19.2444 0.434762 16.3376 1.1108 13.7941 2.09936C11.1646 3.12111 8.9346 4.48842 6.71143 6.71142C4.4884 8.93459 3.12111 11.1646 2.09936 13.7941C1.11079 16.3376 0.434763 19.2445 0.240635 23.5006C0.0460317 27.7657 0 29.1275 0 39.9876C0 50.8473 0.0460317 52.209 0.240635 56.4743C0.434763 60.7303 1.11079 63.6373 2.09936 66.1806C3.12111 68.8103 4.4884 71.0403 6.71143 73.2633C8.9346 75.4863 11.1646 76.8536 13.7941 77.8756C16.3376 78.864 19.2444 79.54 23.5006 79.7343C27.7657 79.9286 29.1275 79.9746 39.9873 79.9746C50.8473 79.9746 52.209 79.9286 56.474 79.7343C60.7303 79.54 63.637 78.864 66.1807 77.8756C68.81 76.8536 71.04 75.4863 73.2633 73.2633C75.4863 71.0403 76.8537 68.8103 77.8757 66.1806C78.864 63.6373 79.54 60.7303 79.734 56.4743C79.9287 52.209 79.9747 50.8473 79.9747 39.9876C79.9747 29.1275 79.9287 27.7657 79.734 23.5006C79.54 19.2445 78.864 16.3376 77.8757 13.7941C76.8537 11.1646 75.4863 8.93459 73.2633 6.71142C71.04 4.48842 68.81 3.12111 66.1807 2.09936C63.637 1.1108 60.7303 0.434762 56.474 0.240635C52.209 0.0460317 50.8473 0 39.9873 0ZM26.6583 39.9876C26.6583 47.349 32.6259 53.3166 39.9873 53.3166C47.349 53.3166 53.3167 47.349 53.3167 39.9876C53.3167 32.6259 47.349 26.6583 39.9873 26.6583C32.6259 26.6583 26.6583 32.6259 26.6583 39.9876ZM19.4533 39.9876C19.4533 28.6467 28.6467 19.4533 39.9873 19.4533C51.328 19.4533 60.5213 28.6467 60.5213 39.9876C60.5213 51.328 51.328 60.5213 39.9873 60.5213C28.6467 60.5213 19.4533 51.328 19.4533 39.9876ZM61.3327 23.4405C63.983 23.4405 66.1313 21.2922 66.1313 18.6421C66.1313 15.9919 63.983 13.8435 61.3327 13.8435C58.6827 13.8435 56.5343 15.9919 56.5343 18.6421C56.5343 21.2922 58.6827 23.4405 61.3327 23.4405Z" fill="#ABB2BF"/>
</svg>
