<svg width="80" height="80" viewBox="0 0 80 80" fill="none" xmlns="http://www.w3.org/2000/svg">
<g clip-path="url(#clip0_2583_1410)">
<path d="M40 0C17.9063 0 0 17.9063 0 40C0 62.0937 17.9063 80 40 80C62.0937 80 80 62.0937 80 40C80 17.9063 62.0937 0 40 0ZM28.8125 56.7344H21.0156V31.7812H28.8125V56.7344ZM24.7031 28.6562H24.6406C21.8125 28.6562 19.9844 26.75 19.9844 24.3281C19.9844 21.8594 21.875 20 24.75 20C27.625 20 29.3906 21.8594 29.4531 24.3281C29.4688 26.7344 27.6406 28.6562 24.7031 28.6562ZM60 56.7344H51.1562V43.8281C51.1562 40.4531 49.7813 38.1406 46.7344 38.1406C44.4063 38.1406 43.1094 39.7031 42.5156 41.2031C42.2969 41.7344 42.3281 42.4844 42.3281 43.25V56.7344H33.5625C33.5625 56.7344 33.6719 33.8594 33.5625 31.7812H42.3281V35.7031C42.8437 33.9844 45.6406 31.5469 50.1094 31.5469C55.6563 31.5469 60 35.1406 60 42.8594V56.7344Z" fill="#ABB2BF"/>
</g>
<defs>
<clipPath id="clip0_2583_1410">
<rect width="80" height="80" fill="white"/>
</clipPath>
</defs>
</svg>
