<?xml version="1.0" standalone="no"?>
<!DOCTYPE svg PUBLIC "-//W3C//DTD SVG 1.1//EN" "http://www.w3.org/Graphics/SVG/1.1/DTD/svg11.dtd">
<svg width="324" height="324" version="1.1" xmlns="http://www.w3.org/2000/svg">
  <title>20 cells diameter theta maze</title>
  <desc>20 cells diameter theta maze generated by The Maze Generator Website (https://www.mazegenerator.net/).</desc>
  <g fill="none" stroke="#582021ff" stroke-width="2" stroke-linecap="square">
    <path d="M 140.37258300203047,185.62741699796953 A 32,32 0 1,1 163,195" />
    <path d="M 163,115 A 48,48 0 0,1 196.94112549695427,129.05887450304573" />
    <path d="M 207.34621756054176,144.6311952464757 A 48,48 0 0,1 211,163" />
    <path d="M 207.34621756054176,181.3688047535243 A 48,48 0 0,1 181.3688047535243,207.34621756054176" />
    <path d="M 163,211 A 48,48 0 0,1 129.05887450304573,196.94112549695427" />
    <path d="M 118.65378243945824,181.36880475352433 A 48,48 0 0,1 144.63119524647567,118.65378243945824" />
    <path d="M 163,99 A 64,64 0 0,1 208.25483399593904,117.74516600406096" />
    <path d="M 227,163 A 64,64 0 0,1 208.25483399593904,208.25483399593904" />
    <path d="M 187.49173967136576,222.12829008072237 A 64,64 0 0,1 138.50826032863427,222.12829008072237" />
    <path d="M 117.74516600406096,208.25483399593907 A 64,64 0 0,1 103.87170991927766,187.49173967136579" />
    <path d="M 99,163 A 64,64 0 0,1 117.74516600406095,117.74516600406096" />
    <path d="M 84.537177567741566,178.60722576129029 A 80,80 0 0,1 163,83" />
    <path d="M 178.60722576129027,84.537177567741566 A 80,80 0 0,1 207.44561864156816,96.482431015796379" />
    <path d="M 219.5685424949238,106.4314575050762 A 80,80 0 0,1 236.91036260090294,132.3853254107928" />
    <path d="M 241.46282243225843,147.39277423870973 A 80,80 0 0,1 243,163" />
    <path d="M 241.46282243225843,178.60722576129027 A 80,80 0 0,1 147.39277423870973,241.46282243225843" />
    <path d="M 118.55438135843184,229.51756898420365 A 80,80 0 0,1 106.43145750507621,219.5685424949238" />
    <path d="M 96.482431015796379,207.44561864156816 A 80,80 0 0,1 89.089637399097072,193.61467458920723" />
    <path d="M 109.66525763011819,83.178917218955661 A 96,96 0 0,1 199.7376095070486,74.307564878916466" />
    <path d="M 242.82108278104434,109.66525763011819 A 96,96 0 0,1 257.15538691871012,144.27132908645169" />
    <path d="M 257.15538691871012,181.72867091354831 A 96,96 0 0,1 251.69243512108352,199.7376095070486" />
    <path d="M 242.82108278104437,216.33474236988178 A 96,96 0 0,1 216.33474236988181,242.82108278104437" />
    <path d="M 199.73760950704863,251.69243512108352 A 96,96 0 0,1 163,259" />
    <path d="M 144.27132908645169,257.15538691871012 A 96,96 0 0,1 126.2623904929514,251.69243512108352" />
    <path d="M 95.117749006091444,230.88225099390857 A 96,96 0 0,1 68.844613081289879,181.72867091354834" />
    <path d="M 68.844613081289879,144.27132908645169 A 96,96 0 0,1 83.178917218955633,109.66525763011822" />
    <path d="M 163,51 A 112,112 0 0,1 272.84795140516178,141.14988393419364" />
    <path d="M 266.47450764126415,205.86054442489004 A 112,112 0 0,1 256.12459657788509,225.22386609819543" />
    <path d="M 242.19595949289334,242.19595949289331 A 112,112 0 0,1 205.86054442489007,266.4745076412641" />
    <path d="M 163,275 A 112,112 0 0,1 141.14988393419361,272.84795140516178" />
    <path d="M 83.804040507106691,242.19595949289334 A 112,112 0 0,1 69.875403422114928,225.22386609819546" />
    <path d="M 53.152048594838192,141.14988393419364 A 112,112 0 0,1 59.525492358735889,120.13945557510992" />
    <path d="M 69.8754034221149,100.7761339018046 A 112,112 0 0,1 100.77613390180454,69.875403422114928" />
    <path d="M 120.13945557510988,59.525492358735917 A 112,112 0 0,1 141.14988393419358,53.152048594838206" />
    <path d="M 138.02843878193554,37.459484108386519 A 128,128 0 0,1 163,35" />
    <path d="M 211.9834793427315,44.7434198385553 A 128,128 0 0,1 269.4281103747258,91.8870101734909" />
    <path d="M 281.25658016144473,114.0165206572685 A 128,128 0 0,1 291,163" />
    <path d="M 288.5405158916135,187.97156121806441 A 128,128 0 0,1 253.50966799187808,253.50966799187808" />
    <path d="M 234.11298982650908,269.4281103747258 A 128,128 0 0,1 163.00000000000003,291" />
    <path d="M 138.02843878193556,288.5405158916135 A 128,128 0 0,1 114.01652065726853,281.25658016144473" />
    <path d="M 91.88701017349095,269.4281103747258 A 128,128 0 0,1 56.57188962527421,234.11298982650908" />
    <path d="M 44.743419838555326,211.98347934273156 A 128,128 0 0,1 37.459484108386519,187.97156121806447" />
    <path d="M 35,163.00000000000003 A 128,128 0 0,1 114.01652065726843,44.743419838555326" />
    <path d="M 148.88553179254328,19.693399359203653 A 144,144 0 0,1 204.80099352464259,25.200591654561919" />
    <path d="M 218.10641426057293,29.96134731837472 A 144,144 0 0,1 230.88113010294364,36.003337933836875" />
    <path d="M 254.35263291956494,51.686494715765875 A 144,144 0 0,1 304.23308037806521,134.90699362967752" />
    <path d="M 306.30660064079632,148.88553179254325 A 144,144 0 0,1 300.79940834543811,204.80099352464256" />
    <path d="M 282.73162417156652,243.0021135548227 A 144,144 0 0,1 218.10641426057293,296.03865268162531" />
    <path d="M 204.80099352464259,300.79940834543811 A 144,144 0 0,1 191.09300637032251,304.23308037806521" />
    <path d="M 177.11446820745675,306.30660064079632 A 144,144 0 0,1 134.90699362967752,304.23308037806521" />
    <path d="M 121.19900647535745,300.79940834543811 A 144,144 0 0,1 107.8935857394271,296.03865268162531" />
    <path d="M 95.118869897056342,289.99666206616314 A 144,144 0 0,1 82.997886445177329,282.73162417156652" />
    <path d="M 71.647367080435075,274.31350528423411 A 144,144 0 0,1 61.176623509137173,264.82337649086287" />
    <path d="M 43.268375828433477,243.0021135548227 A 144,144 0 0,1 29.961347318374749,218.10641426057302" />
    <path d="M 25.200591654561919,204.80099352464259 A 144,144 0 0,1 19,163.00000000000003" />
    <path d="M 19.693399359203653,148.88553179254336 A 144,144 0 0,1 21.766919621934818,134.90699362967752" />
    <path d="M 25.200591654561919,121.19900647535746 A 144,144 0 0,1 36.003337933836875,95.118869897056356" />
    <path d="M 51.686494715765889,71.647367080435032 A 144,144 0 0,1 61.17662350913713,61.176623509137173" />
    <path d="M 71.647367080434989,51.686494715765932 A 144,144 0 0,1 82.997886445177286,43.268375828433491" />
    <path d="M 107.89358573942698,29.961347318374749 A 144,144 0 0,1 121.19900647535741,25.200591654561919" />
    <path d="M 178.68274245272968,3.7704437324484843 A 160,160 0 1,1 163,3" />
  </g>
  <g fill="none" stroke="#582021ff" stroke-width="2" stroke-linecap="butt">
    <line x1="163" y1="35" x2="163" y2="67" />
    <line x1="163" y1="83" x2="163" y2="99" />
    <line x1="191.09300637032246" y1="21.766919621934818" x2="187.97156121806441" y2="37.459484108386505" />
    <line x1="209.44554836071399" y1="9.8895462828465952" x2="204.80099352464259" y2="25.200591654561919" />
    <line x1="218.10641426057293" y1="29.96134731837472" x2="211.9834793427315" y2="44.7434198385553" />
    <line x1="199.7376095070486" y1="74.30756487891648" x2="193.6146745892072" y2="89.089637399097057" />
    <line x1="251.89123728313635" y1="29.964862031592759" x2="243.0021135548227" y2="43.268375828433491" />
    <line x1="225.22386609819546" y1="69.875403422114928" x2="216.33474236988181" y2="83.178917218955661" />
    <line x1="230.88225099390854" y1="95.117749006091429" x2="196.94112549695427" y2="129.05887450304573" />
    <line x1="269.4281103747258" y1="91.8870101734909" x2="256.12459657788509" y2="100.77613390180454" />
    <line x1="236.91036260090294" y1="132.3853254107928" x2="207.34621756054176" y2="144.6311952464757" />
    <line x1="319.92564486451687" y1="131.78554847741947" x2="304.23308037806521" y2="134.90699362967752" />
    <line x1="257.15538691871012" y1="144.27132908645169" x2="241.46282243225843" y2="147.39277423870973" />
    <line x1="307" y1="163" x2="227" y2="163" />
    <line x1="211" y1="163" x2="195" y2="163" />
    <line x1="288.5405158916135" y1="187.97156121806441" x2="241.46282243225843" y2="178.60722576129027" />
    <line x1="316.1104537171534" y1="209.44554836071393" x2="300.79940834543811" y2="204.80099352464254" />
    <line x1="296.03865268162531" y1="218.10641426057293" x2="281.25658016144473" y2="211.98347934273147" />
    <line x1="304.10740229573685" y1="238.42347789215964" x2="289.99666206616314" y2="230.88113010294367" />
    <line x1="256.12459657788509" y1="225.2238660981954" x2="242.82108278104437" y2="216.33474236988178" />
    <line x1="253.50966799187808" y1="253.50966799187808" x2="242.19595949289334" y2="242.19595949289331" />
    <line x1="243.0021135548227" y1="282.73162417156652" x2="234.11298982650908" y2="269.4281103747258" />
    <line x1="216.33474236988181" y1="242.82108278104437" x2="207.44561864156816" y2="229.51756898420362" />
    <line x1="187.49173967136576" y1="222.12829008072237" x2="181.36880475352433" y2="207.34621756054176" />
    <line x1="194.21445152258059" y1="319.92564486451687" x2="181.72867091354834" y2="257.15538691871012" />
    <line x1="163" y1="259" x2="163" y2="243" />
    <line x1="163" y1="211" x2="163" y2="195" />
    <line x1="134.90699362967752" y1="304.23308037806521" x2="138.02843878193556" y2="288.5405158916135" />
    <line x1="141.14988393419361" y1="272.84795140516178" x2="144.27132908645169" y2="257.15538691871012" />
    <line x1="107.8935857394271" y1="296.03865268162531" x2="144.6311952464757" y2="207.34621756054176" />
    <line x1="87.576522107840376" y1="304.10740229573685" x2="95.118869897056342" y2="289.99666206616314" />
    <line x1="82.997886445177315" y1="282.73162417156652" x2="118.55438135843184" y2="229.51756898420365" />
    <line x1="61.176623509137158" y1="264.82337649086287" x2="72.490332008121925" y2="253.5096679918781" />
    <line x1="83.804040507106691" y1="242.19595949289334" x2="95.117749006091444" y2="230.88225099390857" />
    <line x1="106.4314575050762" y1="219.5685424949238" x2="117.74516600406096" y2="208.25483399593907" />
    <line x1="39.318327461962127" y1="264.50292546618334" x2="51.686494715765917" y2="254.352632919565" />
    <line x1="15.179274798194172" y1="224.22934917841445" x2="59.5254923587359" y2="205.86054442489012" />
    <line x1="89.089637399097086" y1="193.61467458920723" x2="118.65378243945824" y2="181.36880475352433" />
    <line x1="53.152048594838206" y1="184.85011606580642" x2="84.53717756774158" y2="178.60722576129029" />
    <line x1="19" y1="163.00000000000003" x2="99" y2="163" />
    <line x1="115" y1="163" x2="131" y2="163" />
    <line x1="3.7704437324484843" y1="147.31725754727037" x2="19.693399359203653" y2="148.88553179254336" />
    <line x1="44.743419838555312" y1="114.01652065726847" x2="59.5254923587359" y2="120.13945557510992" />
    <line x1="21.892597704263181" y1="87.57652210784039" x2="36.003337933836875" y2="95.118869897056342" />
    <line x1="43.268375828433449" y1="82.997886445177329" x2="56.571889625274181" y2="91.887010173490964" />
    <line x1="69.875403422114914" y1="100.7761339018046" x2="83.178917218955633" y2="109.66525763011822" />
    <line x1="61.17662350913713" y1="61.176623509137187" x2="72.4903320081219" y2="72.490332008121939" />
    <line x1="83.804040507106663" y1="83.804040507106691" x2="106.43145750507618" y2="106.43145750507621" />
    <line x1="61.497074533816658" y1="39.318327461962127" x2="71.647367080434989" y2="51.686494715765917" />
    <line x1="87.576522107840333" y1="21.892597704263238" x2="95.1188698970563" y2="36.0033379338369" />
    <line x1="107.89358573942698" y1="29.961347318374749" x2="120.13945557510988" y2="59.5254923587359" />
    <line x1="138.50826032863421" y1="103.87170991927766" x2="144.63119524647567" y2="118.65378243945824" />
    <line x1="131.78554847741941" y1="6.0743551354831595" x2="138.02843878193554" y2="37.459484108386519" />
  </g>
</svg>
