<svg width="80" height="80" viewBox="0 0 80 80" fill="none" xmlns="http://www.w3.org/2000/svg">
<path d="M56.3533 23.9442C56.3692 23.9442 56.3904 23.9442 56.4117 23.9442C56.9668 23.9442 57.4821 24.1169 57.9044 24.4143L57.8964 24.409C58.2045 24.6773 58.4117 25.0544 58.4622 25.4794V25.4874C58.5153 25.8114 58.5445 26.1833 58.5445 26.5631C58.5445 26.7357 58.5392 26.9057 58.5259 27.0757V27.0518C57.9283 33.344 55.336 48.6029 54.0186 55.6467C53.4608 58.6295 52.3639 59.6282 51.3015 59.7238C48.9934 59.9389 47.2404 58.1992 45.004 56.7331C41.5033 54.4356 39.5246 53.0066 36.1275 50.7676C32.1992 48.1833 34.7464 46.757 36.9827 44.4356C37.5697 43.8247 47.745 34.5684 47.9442 33.7291C47.9548 33.6786 47.9602 33.6228 47.9602 33.5644C47.9602 33.3572 47.8831 33.1687 47.7583 33.0252C47.6202 32.9349 47.4475 32.8845 47.2669 32.8845C47.1474 32.8845 47.0332 32.9084 46.927 32.9482L46.9323 32.9455C46.5817 33.0252 40.9898 36.7207 30.1567 44.0319C28.9748 44.9641 27.4821 45.5538 25.8566 45.6228H25.8406C23.5378 45.344 21.4475 44.8313 19.4635 44.1009L19.66 44.1647C17.1687 43.3519 15.1899 42.9243 15.3599 41.5485C15.4502 40.8331 16.4365 40.1009 18.3187 39.3519C29.9132 34.3001 37.645 30.9703 41.5139 29.3625C45.7822 27.0969 50.7304 25.2324 55.9336 24.0239L56.3506 23.9416L56.3533 23.9442ZM39.907 0C17.8566 0.0531208 0 17.9416 0 40C0 62.0903 17.907 80 40 80C62.093 80 80 62.093 80 40C80 17.9416 62.1434 0.0531208 40.0983 0H40.093C40.031 0 39.969 0 39.907 0Z" fill="#ABB2BF"/>
</svg>
