<svg width="128" height="128" viewBox="0 0 128 128" fill="none" xmlns="http://www.w3.org/2000/svg">
<g clip-path="url(#clip0_2518_1401)">
<rect width="128" height="128" rx="2" fill="url(#paint0_radial_2518_1401)"/>
<path d="M48.1895 111.047C46.6814 111.235 45.5033 110.906 44.655 110.059C43.9009 109.306 43.5239 108.459 43.5239 107.518C43.5239 106.765 43.7596 106.059 44.2308 105.4C44.7964 104.835 45.5975 104.459 46.6343 104.271C49.0849 103.894 52.1482 103.235 55.8241 102.294C59.5943 101.353 63.4588 100.129 67.4174 98.6236C71.4704 97.0236 75.1463 95.0471 78.4452 92.6942C82.6867 89.6824 86.127 86.7648 88.7661 83.9412C91.4052 81.1177 93.526 77.7295 95.1283 73.7765C95.5996 72.553 95.8352 71.6118 95.8352 70.953C95.8352 69.8236 95.3168 68.8354 94.28 67.9883C93.3374 67.1412 91.9236 65.7765 90.0385 63.8942C88.1534 62.0118 86.0327 60.8354 83.6764 60.3648C81.4142 59.8001 78.3038 59.0471 74.3451 58.1059C71.706 57.353 69.2554 56.7412 66.9933 56.2706C64.8254 55.8001 62.799 55.5648 60.9139 55.5648C59.7828 55.5648 58.8874 55.1883 58.2276 54.4354C57.5678 53.6824 57.238 52.8354 57.238 51.8942C57.238 50.2942 57.992 49.3059 59.5001 48.9295C61.1024 48.4589 62.9875 47.8471 65.1553 47.0942C67.4174 46.3412 69.6796 45.4471 71.9417 44.4118C74.2038 43.3765 76.1831 42.153 77.8797 40.7412C79.5763 39.3295 80.6602 37.7295 81.1315 35.9412C81.32 35.0942 81.4614 34.3412 81.5556 33.6824C81.7441 32.9295 81.8384 32.2236 81.8384 31.5648C81.8384 29.0236 80.943 27.0942 79.1521 25.7765C77.4555 24.4589 75.0049 23.3295 71.8003 22.3883C70.575 22.0118 69.3025 21.8236 67.983 21.8236C67.0404 21.8236 66.0508 21.9648 65.014 22.2471C64.0714 22.4354 62.799 22.7648 61.1966 23.2353C60.4426 23.2353 59.6886 23.4707 58.9345 23.9412C58.1805 24.4118 57.1437 24.9765 55.8241 25.6354C55.5414 25.7295 55.2586 25.8236 54.9758 25.9177C54.6931 25.9177 54.4103 25.9177 54.1276 25.9177C52.9022 25.9177 51.8654 25.5412 51.0172 24.7883C50.2631 24.0354 49.8861 23.1883 49.8861 22.2471C49.8861 20.9295 50.6873 19.9883 52.2896 19.4236C53.2321 19.1412 54.1276 18.7177 54.9758 18.153C55.9184 17.5883 57.1437 17.0707 58.6518 16.6001C60.1598 16.1295 61.6679 15.753 63.176 15.4707C64.6841 15.1883 66.2393 15.0471 67.8416 15.0471C68.8784 15.0471 69.8681 15.1412 70.8106 15.3295C71.8474 15.4236 72.9313 15.5648 74.0624 15.753C78.1153 16.6942 81.7441 18.5295 84.9488 21.2589C88.2477 23.9883 89.8971 27.5177 89.8971 31.8471C89.8971 32.7883 89.8029 33.7765 89.6144 34.8118C89.5201 35.753 89.2374 36.7412 88.7661 37.7765C87.5408 40.9765 85.6086 43.6589 82.9694 45.8236C80.4246 47.8942 77.6912 49.6354 74.7693 51.0471C74.9578 51.0471 75.2406 51.0942 75.6176 51.1883C75.9946 51.2824 76.3716 51.3765 76.7486 51.4706C79.9533 52.3177 83.2051 53.1177 86.504 53.8707C89.8971 54.5295 93.0547 56.3648 95.9766 59.3765C96.8249 60.2236 97.8617 61.2118 99.087 62.3412C100.312 63.3765 101.396 64.6471 102.339 66.153C103.281 67.6589 103.753 69.4001 103.753 71.3765C103.753 72.0354 103.658 72.7883 103.47 73.6354C103.376 74.4824 103.093 75.3765 102.622 76.3177C100.642 80.7412 98.0973 84.6942 94.9869 88.1765C91.9707 91.6589 88.1534 95.0471 83.535 98.3412C79.5763 101.071 75.3348 103.282 70.8106 104.977C66.3806 106.765 62.1392 108.129 58.0862 109.071C54.1276 110.012 50.8286 110.671 48.1895 111.047ZM31.2237 113.306C29.5271 113.306 27.8305 112.694 26.134 111.471C24.4374 110.341 23.7305 108.459 24.0132 105.824C24.296 102.906 25.1914 99.0471 26.6995 94.2471C28.3018 89.4471 30.234 84.2707 32.4961 78.7177C34.7582 73.0706 37.1617 67.4236 39.7066 61.7765C42.3457 56.0354 44.8906 50.7648 47.3412 45.9648C49.8861 41.1648 52.054 37.2118 53.8448 34.1059C54.6931 32.6001 56.0126 31.8471 57.8035 31.8471C58.8403 31.8471 59.7828 32.2236 60.6311 32.9765C61.4794 33.7295 61.8093 34.7648 61.6208 36.0824V35.9412C61.5265 36.8824 61.1495 38.3412 60.4897 40.3177C59.83 42.2942 59.123 43.8471 58.369 44.9765C57.3322 46.4824 56.0598 48.0354 54.5517 49.6354C53.0436 51.1412 51.7241 52.9765 50.593 55.1412C47.1056 61.6354 43.9481 68.0354 41.1204 74.3412C38.387 80.553 36.1721 86.2471 34.4755 91.4236C32.7789 96.5059 31.7892 100.694 31.5065 103.988C31.4122 104.647 31.695 105.353 32.3548 106.106C33.1088 106.859 33.8157 107.612 34.4755 108.365C35.2295 109.118 35.6065 109.871 35.6065 110.624C35.6065 111.282 35.0881 111.941 34.0513 112.6C33.2973 113.071 32.3548 113.306 31.2237 113.306Z" fill="#C07E7E"/>
<g filter="url(#filter0_f_2518_1401)">
<ellipse cx="76.9396" cy="31.9986" rx="20.5" ry="40" transform="rotate(-63.9183 76.9396 31.9986)" fill="#E8F92F"/>
</g>
</g>
<defs>
<filter id="filter0_f_2518_1401" x="-32.6092" y="-65.9629" width="219.098" height="195.923" filterUnits="userSpaceOnUse" color-interpolation-filters="sRGB">
<feFlood flood-opacity="0" result="BackgroundImageFix"/>
<feBlend mode="normal" in="SourceGraphic" in2="BackgroundImageFix" result="shape"/>
<feGaussianBlur stdDeviation="36.25" result="effect1_foregroundBlur_2518_1401"/>
</filter>
<radialGradient id="paint0_radial_2518_1401" cx="0" cy="0" r="1" gradientUnits="userSpaceOnUse" gradientTransform="translate(1.99999 2.5) rotate(46.7014) scale(142.899)">
<stop stop-color="#FF5557"/>
<stop offset="1"/>
</radialGradient>
<clipPath id="clip0_2518_1401">
<rect width="128" height="128" rx="2" fill="white"/>
</clipPath>
</defs>
</svg>
